<svg width="768" height="220" viewBox="0 0 768 220" fill="#F0145A" xmlns="http://www.w3.org/2000/svg">
<g clip-path="url(#clip0_22728_8148)">
<path d="M75.962 58.6L72.386 65.248C72.042 65.888 71.626 66.372 71.138 66.7C70.658 67.028 70.134 67.192 69.566 67.192C69.126 67.192 68.67 67.096 68.198 66.904L68.666 65.428C69.002 65.532 69.282 65.584 69.506 65.584C69.746 65.584 69.962 65.528 70.154 65.416C70.346 65.296 70.522 65.112 70.682 64.864L70.754 64.768L67.442 58.6H69.518L71.75 63.112L74.054 58.6H75.962ZM81.1378 63.616H79.7938V67H77.8618V58.6H79.7938V61.996H81.1858L83.3938 58.6H85.4458L82.6978 62.656L85.5298 67H83.3218L81.1378 63.616Z" fill="white"/>
<path d="M105.149 58.6C105.893 58.6 106.537 58.724 107.081 58.972C107.633 59.22 108.057 59.572 108.353 60.028C108.649 60.484 108.797 61.024 108.797 61.648C108.797 62.264 108.649 62.804 108.353 63.268C108.057 63.724 107.633 64.076 107.081 64.324C106.537 64.564 105.893 64.684 105.149 64.684H103.457V67H101.513V58.6H105.149ZM105.041 63.1C105.625 63.1 106.069 62.976 106.373 62.728C106.677 62.472 106.829 62.112 106.829 61.648C106.829 61.176 106.677 60.816 106.373 60.568C106.069 60.312 105.625 60.184 105.041 60.184H103.457V63.1H105.041ZM118.476 58.6L114.9 65.248C114.556 65.888 114.14 66.372 113.652 66.7C113.172 67.028 112.648 67.192 112.08 67.192C111.64 67.192 111.184 67.096 110.712 66.904L111.18 65.428C111.516 65.532 111.796 65.584 112.02 65.584C112.26 65.584 112.476 65.528 112.668 65.416C112.86 65.296 113.036 65.112 113.196 64.864L113.268 64.768L109.956 58.6H112.032L114.264 63.112L116.568 58.6H118.476Z" fill="white"/>
<rect x="126" y="50" width="33" height="25" rx="8" fill="#F0145A"/>
<path d="M140.629 65.44V67H134.125V58.6H140.473V60.16H136.057V61.984H139.957V63.496H136.057V65.44H140.629ZM150.88 58.6V67H149.284L145.096 61.9V67H143.176V58.6H144.784L148.96 63.7V58.6H150.88Z" fill="white"/>
<circle cx="168" cy="62.5" r="3" fill="#E6E6F0"/>
<path d="M182.937 63.236L180.649 65.556V68.5H179.465V57.3H180.649V64.068L187.225 57.3H188.585L183.737 62.372L188.921 68.5H187.513L182.937 63.236ZM197.094 60.084L192.886 69.508C192.544 70.2973 192.15 70.8573 191.702 71.188C191.254 71.5187 190.715 71.684 190.086 71.684C189.68 71.684 189.302 71.62 188.95 71.492C188.598 71.364 188.293 71.172 188.037 70.916L188.566 70.068C188.992 70.4947 189.504 70.708 190.102 70.708C190.486 70.708 190.811 70.6013 191.078 70.388C191.355 70.1747 191.611 69.812 191.846 69.3L192.214 68.484L188.454 60.084H189.638L192.806 67.236L195.974 60.084H197.094ZM198.693 60.084H199.829V68.5H198.693V60.084ZM199.269 58.244C199.035 58.244 198.837 58.164 198.677 58.004C198.517 57.844 198.437 57.652 198.437 57.428C198.437 57.2147 198.517 57.028 198.677 56.868C198.837 56.708 199.035 56.628 199.269 56.628C199.504 56.628 199.701 56.708 199.861 56.868C200.021 57.0173 200.101 57.1987 200.101 57.412C200.101 57.6467 200.021 57.844 199.861 58.004C199.701 58.164 199.504 58.244 199.269 58.244ZM210.062 60.084L206.318 68.5H205.15L201.422 60.084H202.606L205.758 67.252L208.942 60.084H210.062ZM211.243 66.836C211.489 66.836 211.691 66.9213 211.851 67.092C212.011 67.252 212.091 67.4547 212.091 67.7C212.091 67.828 212.07 67.9667 212.027 68.116C211.995 68.2653 211.942 68.436 211.867 68.628L211.195 70.836H210.427L210.971 68.516C210.801 68.4627 210.662 68.3667 210.555 68.228C210.449 68.0787 210.395 67.9027 210.395 67.7C210.395 67.4547 210.475 67.252 210.635 67.092C210.795 66.9213 210.998 66.836 211.243 66.836ZM230.565 57.3V68.5H229.429V59.54L225.029 67.076H224.469L220.069 59.588V68.5H218.933V57.3H219.909L224.773 65.604L229.589 57.3H230.565ZM241.303 64.644H234.263C234.327 65.5187 234.663 66.228 235.271 66.772C235.879 67.3053 236.647 67.572 237.575 67.572C238.097 67.572 238.577 67.4813 239.015 67.3C239.452 67.108 239.831 66.8307 240.151 66.468L240.791 67.204C240.417 67.652 239.948 67.9933 239.383 68.228C238.828 68.4627 238.215 68.58 237.543 68.58C236.679 68.58 235.911 68.3987 235.239 68.036C234.577 67.6627 234.06 67.1507 233.687 66.5C233.313 65.8493 233.127 65.1133 233.127 64.292C233.127 63.4707 233.303 62.7347 233.655 62.084C234.017 61.4333 234.508 60.9267 235.127 60.564C235.756 60.2013 236.46 60.02 237.239 60.02C238.017 60.02 238.716 60.2013 239.335 60.564C239.953 60.9267 240.439 61.4333 240.791 62.084C241.143 62.724 241.319 63.46 241.319 64.292L241.303 64.644ZM237.239 60.996C236.428 60.996 235.745 61.2573 235.191 61.78C234.647 62.292 234.337 62.964 234.263 63.796H240.231C240.156 62.964 239.841 62.292 239.287 61.78C238.743 61.2573 238.06 60.996 237.239 60.996ZM247.119 68.58C246.287 68.58 245.54 68.3987 244.879 68.036C244.228 67.6733 243.716 67.1667 243.343 66.516C242.97 65.8547 242.783 65.1133 242.783 64.292C242.783 63.4707 242.97 62.7347 243.343 62.084C243.716 61.4333 244.228 60.9267 244.879 60.564C245.54 60.2013 246.287 60.02 247.119 60.02C247.844 60.02 248.49 60.164 249.055 60.452C249.631 60.7293 250.084 61.14 250.415 61.684L249.567 62.26C249.29 61.844 248.938 61.5347 248.511 61.332C248.084 61.1187 247.62 61.012 247.119 61.012C246.511 61.012 245.962 61.1507 245.471 61.428C244.991 61.6947 244.612 62.0787 244.335 62.58C244.068 63.0813 243.935 63.652 243.935 64.292C243.935 64.9427 244.068 65.5187 244.335 66.02C244.612 66.5107 244.991 66.8947 245.471 67.172C245.962 67.4387 246.511 67.572 247.119 67.572C247.62 67.572 248.084 67.4707 248.511 67.268C248.938 67.0653 249.29 66.756 249.567 66.34L250.415 66.916C250.084 67.46 249.631 67.876 249.055 68.164C248.479 68.4413 247.834 68.58 247.119 68.58ZM256.81 60.02C257.866 60.02 258.703 60.3293 259.322 60.948C259.951 61.556 260.266 62.4467 260.266 63.62V68.5H259.13V63.732C259.13 62.8573 258.911 62.1907 258.474 61.732C258.036 61.2733 257.412 61.044 256.602 61.044C255.695 61.044 254.975 61.316 254.442 61.86C253.919 62.3933 253.658 63.1347 253.658 64.084V68.5H252.522V56.628H253.658V61.556C253.967 61.0653 254.394 60.6867 254.938 60.42C255.482 60.1533 256.106 60.02 256.81 60.02ZM267.638 60.02C268.694 60.02 269.531 60.3293 270.15 60.948C270.779 61.556 271.094 62.4467 271.094 63.62V68.5H269.958V63.732C269.958 62.8573 269.739 62.1907 269.302 61.732C268.864 61.2733 268.24 61.044 267.43 61.044C266.523 61.044 265.803 61.316 265.27 61.86C264.747 62.3933 264.486 63.1347 264.486 64.084V68.5H263.35V60.084H264.438V61.636C264.747 61.124 265.174 60.7293 265.718 60.452C266.272 60.164 266.912 60.02 267.638 60.02ZM274.178 60.084H275.314V68.5H274.178V60.084ZM274.754 58.244C274.519 58.244 274.322 58.164 274.162 58.004C274.002 57.844 273.922 57.652 273.922 57.428C273.922 57.2147 274.002 57.028 274.162 56.868C274.322 56.708 274.519 56.628 274.754 56.628C274.988 56.628 275.186 56.708 275.346 56.868C275.506 57.0173 275.586 57.1987 275.586 57.412C275.586 57.6467 275.506 57.844 275.346 58.004C275.186 58.164 274.988 58.244 274.754 58.244ZM281.595 64.276L279.611 66.1V68.5H278.475V56.628H279.611V64.676L284.635 60.084H286.043L282.443 63.524L286.379 68.5H284.987L281.595 64.276ZM291.18 68.58C290.37 68.58 289.639 68.3987 288.988 68.036C288.338 67.6627 287.826 67.1507 287.452 66.5C287.079 65.8493 286.892 65.1133 286.892 64.292C286.892 63.4707 287.079 62.7347 287.452 62.084C287.826 61.4333 288.338 60.9267 288.988 60.564C289.639 60.2013 290.37 60.02 291.18 60.02C291.991 60.02 292.722 60.2013 293.372 60.564C294.023 60.9267 294.53 61.4333 294.892 62.084C295.266 62.7347 295.452 63.4707 295.452 64.292C295.452 65.1133 295.266 65.8493 294.892 66.5C294.53 67.1507 294.023 67.6627 293.372 68.036C292.722 68.3987 291.991 68.58 291.18 68.58ZM291.18 67.572C291.778 67.572 292.311 67.4387 292.78 67.172C293.26 66.8947 293.634 66.5053 293.9 66.004C294.167 65.5027 294.3 64.932 294.3 64.292C294.3 63.652 294.167 63.0813 293.9 62.58C293.634 62.0787 293.26 61.6947 292.78 61.428C292.311 61.1507 291.778 61.012 291.18 61.012C290.583 61.012 290.044 61.1507 289.564 61.428C289.095 61.6947 288.722 62.0787 288.444 62.58C288.178 63.0813 288.044 63.652 288.044 64.292C288.044 64.932 288.178 65.5027 288.444 66.004C288.722 66.5053 289.095 66.8947 289.564 67.172C290.044 67.4387 290.583 67.572 291.18 67.572ZM304.609 60.084L300.865 68.5H299.697L295.969 60.084H297.153L300.305 67.252L303.489 60.084H304.609ZM308.903 60.02C310.002 60.02 310.844 60.2973 311.431 60.852C312.018 61.396 312.311 62.2067 312.311 63.284V68.5H311.223V67.188C310.967 67.6253 310.588 67.9667 310.087 68.212C309.596 68.4573 309.01 68.58 308.327 68.58C307.388 68.58 306.642 68.356 306.087 67.908C305.532 67.46 305.255 66.868 305.255 66.132C305.255 65.4173 305.511 64.8413 306.023 64.404C306.546 63.9667 307.372 63.748 308.503 63.748H311.175V63.236C311.175 62.5107 310.972 61.9613 310.567 61.588C310.162 61.204 309.57 61.012 308.791 61.012C308.258 61.012 307.746 61.1027 307.255 61.284C306.764 61.4547 306.343 61.6947 305.991 62.004L305.479 61.156C305.906 60.7933 306.418 60.516 307.015 60.324C307.612 60.1213 308.242 60.02 308.903 60.02ZM308.503 67.684C309.143 67.684 309.692 67.54 310.151 67.252C310.61 66.9533 310.951 66.5267 311.175 65.972V64.596H308.535C307.095 64.596 306.375 65.0973 306.375 66.1C306.375 66.5907 306.562 66.98 306.935 67.268C307.308 67.5453 307.831 67.684 308.503 67.684ZM321.84 68.58C321.157 68.58 320.501 68.484 319.872 68.292C319.253 68.0893 318.768 67.8387 318.416 67.54L318.928 66.644C319.28 66.9213 319.723 67.1507 320.256 67.332C320.789 67.5027 321.344 67.588 321.92 67.588C322.688 67.588 323.253 67.4707 323.616 67.236C323.989 66.9907 324.176 66.6493 324.176 66.212C324.176 65.9027 324.075 65.6627 323.872 65.492C323.669 65.3107 323.413 65.1773 323.104 65.092C322.795 64.996 322.384 64.9053 321.872 64.82C321.189 64.692 320.64 64.564 320.224 64.436C319.808 64.2973 319.451 64.068 319.152 63.748C318.864 63.428 318.72 62.9853 318.72 62.42C318.72 61.716 319.013 61.14 319.6 60.692C320.187 60.244 321.003 60.02 322.048 60.02C322.592 60.02 323.136 60.0947 323.68 60.244C324.224 60.3827 324.672 60.5693 325.024 60.804L324.528 61.716C323.835 61.236 323.008 60.996 322.048 60.996C321.323 60.996 320.773 61.124 320.4 61.38C320.037 61.636 319.856 61.972 319.856 62.388C319.856 62.708 319.957 62.964 320.16 63.156C320.373 63.348 320.635 63.492 320.944 63.588C321.253 63.6733 321.68 63.764 322.224 63.86C322.896 63.988 323.435 64.116 323.84 64.244C324.245 64.372 324.592 64.5907 324.88 64.9C325.168 65.2093 325.312 65.636 325.312 66.18C325.312 66.916 325.003 67.5027 324.384 67.94C323.776 68.3667 322.928 68.58 321.84 68.58ZM331.844 67.988C331.631 68.18 331.364 68.3293 331.044 68.436C330.735 68.532 330.409 68.58 330.068 68.58C329.279 68.58 328.671 68.3667 328.244 67.94C327.817 67.5133 327.604 66.9107 327.604 66.132V61.044H326.1V60.084H327.604V58.244H328.74V60.084H331.3V61.044H328.74V66.068C328.74 66.5693 328.863 66.9533 329.108 67.22C329.364 67.476 329.727 67.604 330.196 67.604C330.431 67.604 330.655 67.5667 330.868 67.492C331.092 67.4173 331.284 67.3107 331.444 67.172L331.844 67.988ZM335 61.732C335.267 61.1667 335.661 60.74 336.184 60.452C336.717 60.164 337.373 60.02 338.152 60.02V61.124L337.88 61.108C336.995 61.108 336.301 61.38 335.8 61.924C335.299 62.468 335.048 63.2307 335.048 64.212V68.5H333.912V60.084H335V61.732ZM340.29 68.58C340.055 68.58 339.852 68.4947 339.682 68.324C339.522 68.1533 339.442 67.9453 339.442 67.7C339.442 67.4547 339.522 67.252 339.682 67.092C339.852 66.9213 340.055 66.836 340.29 66.836C340.524 66.836 340.727 66.9213 340.898 67.092C341.068 67.252 341.154 67.4547 341.154 67.7C341.154 67.9453 341.068 68.1533 340.898 68.324C340.727 68.4947 340.524 68.58 340.29 68.58ZM343.696 66.836C343.942 66.836 344.144 66.9213 344.304 67.092C344.464 67.252 344.544 67.4547 344.544 67.7C344.544 67.828 344.523 67.9667 344.48 68.116C344.448 68.2653 344.395 68.436 344.32 68.628L343.648 70.836H342.88L343.424 68.516C343.254 68.4627 343.115 68.3667 343.008 68.228C342.902 68.0787 342.848 67.9027 342.848 67.7C342.848 67.4547 342.928 67.252 343.088 67.092C343.248 66.9213 343.451 66.836 343.696 66.836ZM353.499 57.3V68.5H352.347V58.324H349.707V57.3H353.499ZM365.696 65.556H363.456V68.5H362.304V65.556H355.984V64.724L361.92 57.3H363.2L357.472 64.532H362.336V61.94H363.456V64.532H365.696V65.556ZM371.255 55.028H372.295L367.015 70.1H365.975L371.255 55.028ZM376.155 57.3V68.5H375.003V58.324H372.363V57.3H376.155Z" fill="#B3B3BA"/>
<circle cx="387" cy="62.5" r="3" fill="#E6E6F0"/>
<path d="M401.83 68.692C400.902 68.692 400.076 68.4627 399.35 68.004C398.625 67.5453 398.054 66.884 397.638 66.02C397.233 65.1453 397.03 64.1053 397.03 62.9C397.03 61.6947 397.233 60.66 397.638 59.796C398.054 58.9213 398.625 58.2547 399.35 57.796C400.076 57.3373 400.902 57.108 401.83 57.108C402.758 57.108 403.585 57.3373 404.31 57.796C405.036 58.2547 405.601 58.9213 406.006 59.796C406.422 60.66 406.63 61.6947 406.63 62.9C406.63 64.1053 406.422 65.1453 406.006 66.02C405.601 66.884 405.036 67.5453 404.31 68.004C403.585 68.4627 402.758 68.692 401.83 68.692ZM401.83 66.5C402.513 66.5 403.046 66.2067 403.43 65.62C403.825 65.0333 404.022 64.1267 404.022 62.9C404.022 61.6733 403.825 60.7667 403.43 60.18C403.046 59.5933 402.513 59.3 401.83 59.3C401.158 59.3 400.625 59.5933 400.23 60.18C399.846 60.7667 399.654 61.6733 399.654 62.9C399.654 64.1267 399.846 65.0333 400.23 65.62C400.625 66.2067 401.158 66.5 401.83 66.5ZM415.554 62.612C416.108 62.8893 416.53 63.252 416.818 63.7C417.116 64.148 417.266 64.6653 417.266 65.252C417.266 65.9453 417.068 66.5533 416.674 67.076C416.279 67.588 415.724 67.988 415.01 68.276C414.295 68.5533 413.468 68.692 412.53 68.692C411.591 68.692 410.764 68.5533 410.05 68.276C409.346 67.988 408.796 67.588 408.402 67.076C408.018 66.5533 407.826 65.9453 407.826 65.252C407.826 64.6653 407.97 64.148 408.258 63.7C408.556 63.252 408.978 62.8893 409.522 62.612C409.106 62.356 408.786 62.036 408.562 61.652C408.338 61.2573 408.226 60.8093 408.226 60.308C408.226 59.6573 408.407 59.092 408.77 58.612C409.132 58.132 409.639 57.764 410.29 57.508C410.94 57.2413 411.687 57.108 412.53 57.108C413.383 57.108 414.135 57.2413 414.786 57.508C415.447 57.764 415.959 58.132 416.322 58.612C416.684 59.092 416.866 59.6573 416.866 60.308C416.866 60.8093 416.754 61.2573 416.53 61.652C416.306 62.036 415.98 62.356 415.554 62.612ZM412.53 59.012C412.007 59.012 411.586 59.14 411.266 59.396C410.956 59.6413 410.802 59.9827 410.802 60.42C410.802 60.8467 410.956 61.1827 411.266 61.428C411.575 61.6733 411.996 61.796 412.53 61.796C413.063 61.796 413.49 61.6733 413.81 61.428C414.13 61.1827 414.29 60.8467 414.29 60.42C414.29 59.9827 414.13 59.6413 413.81 59.396C413.49 59.14 413.063 59.012 412.53 59.012ZM412.53 66.788C413.18 66.788 413.692 66.644 414.066 66.356C414.45 66.0573 414.642 65.6627 414.642 65.172C414.642 64.6813 414.45 64.292 414.066 64.004C413.692 63.716 413.18 63.572 412.53 63.572C411.89 63.572 411.383 63.716 411.01 64.004C410.636 64.292 410.45 64.6813 410.45 65.172C410.45 65.6733 410.636 66.068 411.01 66.356C411.383 66.644 411.89 66.788 412.53 66.788ZM423.252 68.692C422.324 68.692 421.497 68.4627 420.772 68.004C420.047 67.5453 419.476 66.884 419.06 66.02C418.655 65.1453 418.452 64.1053 418.452 62.9C418.452 61.6947 418.655 60.66 419.06 59.796C419.476 58.9213 420.047 58.2547 420.772 57.796C421.497 57.3373 422.324 57.108 423.252 57.108C424.18 57.108 425.007 57.3373 425.732 57.796C426.457 58.2547 427.023 58.9213 427.428 59.796C427.844 60.66 428.052 61.6947 428.052 62.9C428.052 64.1053 427.844 65.1453 427.428 66.02C427.023 66.884 426.457 67.5453 425.732 68.004C425.007 68.4627 424.18 68.692 423.252 68.692ZM423.252 66.5C423.935 66.5 424.468 66.2067 424.852 65.62C425.247 65.0333 425.444 64.1267 425.444 62.9C425.444 61.6733 425.247 60.7667 424.852 60.18C424.468 59.5933 423.935 59.3 423.252 59.3C422.58 59.3 422.047 59.5933 421.652 60.18C421.268 60.7667 421.076 61.6733 421.076 62.9C421.076 64.1267 421.268 65.0333 421.652 65.62C422.047 66.2067 422.58 66.5 423.252 66.5ZM434.112 68.692C433.184 68.692 432.357 68.4627 431.632 68.004C430.906 67.5453 430.336 66.884 429.92 66.02C429.514 65.1453 429.312 64.1053 429.312 62.9C429.312 61.6947 429.514 60.66 429.92 59.796C430.336 58.9213 430.906 58.2547 431.632 57.796C432.357 57.3373 433.184 57.108 434.112 57.108C435.04 57.108 435.866 57.3373 436.592 57.796C437.317 58.2547 437.882 58.9213 438.288 59.796C438.704 60.66 438.912 61.6947 438.912 62.9C438.912 64.1053 438.704 65.1453 438.288 66.02C437.882 66.884 437.317 67.5453 436.592 68.004C435.866 68.4627 435.04 68.692 434.112 68.692ZM434.112 66.5C434.794 66.5 435.328 66.2067 435.712 65.62C436.106 65.0333 436.304 64.1267 436.304 62.9C436.304 61.6733 436.106 60.7667 435.712 60.18C435.328 59.5933 434.794 59.3 434.112 59.3C433.44 59.3 432.906 59.5933 432.512 60.18C432.128 60.7667 431.936 61.6733 431.936 62.9C431.936 64.1267 432.128 65.0333 432.512 65.62C432.906 66.2067 433.44 66.5 434.112 66.5ZM453.07 66.388V68.5H444.606V66.82L448.926 62.74C449.385 62.3027 449.694 61.9293 449.854 61.62C450.014 61.3 450.094 60.9853 450.094 60.676C450.094 60.228 449.939 59.8867 449.63 59.652C449.331 59.4067 448.889 59.284 448.302 59.284C447.811 59.284 447.369 59.38 446.974 59.572C446.579 59.7533 446.249 60.0307 445.982 60.404L444.094 59.188C444.531 58.5373 445.134 58.0307 445.902 57.668C446.67 57.2947 447.55 57.108 448.542 57.108C449.374 57.108 450.099 57.2467 450.718 57.524C451.347 57.7907 451.833 58.1747 452.174 58.676C452.526 59.1667 452.702 59.748 452.702 60.42C452.702 61.028 452.574 61.5987 452.318 62.132C452.062 62.6653 451.566 63.2733 450.83 63.956L448.254 66.388H453.07ZM458.46 57.3V68.5H455.868V59.38H453.628V57.3H458.46ZM464.725 57.3V68.5H462.133V59.38H459.893V57.3H464.725ZM475.138 57.108C476.706 57.108 477.933 57.588 478.818 58.548C479.703 59.4973 480.146 60.868 480.146 62.66C480.146 63.9293 479.906 65.0173 479.426 65.924C478.957 66.8307 478.29 67.5187 477.426 67.988C476.562 68.4573 475.565 68.692 474.434 68.692C473.837 68.692 473.266 68.628 472.722 68.5C472.178 68.3613 471.714 68.1693 471.33 67.924L472.29 66.02C472.834 66.3933 473.533 66.58 474.386 66.58C475.335 66.58 476.087 66.3027 476.642 65.748C477.197 65.1827 477.495 64.372 477.538 63.316C476.866 63.988 475.938 64.324 474.754 64.324C474.039 64.324 473.389 64.18 472.802 63.892C472.215 63.604 471.751 63.1987 471.41 62.676C471.069 62.1427 470.898 61.5293 470.898 60.836C470.898 60.0893 471.085 59.4333 471.458 58.868C471.831 58.3027 472.338 57.8707 472.978 57.572C473.629 57.2627 474.349 57.108 475.138 57.108ZM475.33 62.388C475.895 62.388 476.354 62.2333 476.706 61.924C477.069 61.604 477.25 61.1987 477.25 60.708C477.25 60.2173 477.074 59.8173 476.722 59.508C476.381 59.1987 475.906 59.044 475.298 59.044C474.743 59.044 474.29 59.1933 473.938 59.492C473.597 59.7907 473.426 60.196 473.426 60.708C473.426 61.22 473.597 61.6307 473.938 61.94C474.29 62.2387 474.754 62.388 475.33 62.388ZM489.664 66.388V68.5H481.2V66.82L485.52 62.74C485.979 62.3027 486.288 61.9293 486.448 61.62C486.608 61.3 486.688 60.9853 486.688 60.676C486.688 60.228 486.533 59.8867 486.224 59.652C485.925 59.4067 485.483 59.284 484.896 59.284C484.405 59.284 483.963 59.38 483.568 59.572C483.173 59.7533 482.843 60.0307 482.576 60.404L480.688 59.188C481.125 58.5373 481.728 58.0307 482.496 57.668C483.264 57.2947 484.144 57.108 485.136 57.108C485.968 57.108 486.693 57.2467 487.312 57.524C487.941 57.7907 488.427 58.1747 488.768 58.676C489.12 59.1667 489.296 59.748 489.296 60.42C489.296 61.028 489.168 61.5987 488.912 62.132C488.656 62.6653 488.16 63.2733 487.424 63.956L484.848 66.388H489.664ZM499.47 57.3V58.98L495.31 68.5H492.494L496.51 59.412H492.798V61.236H490.494V57.3H499.47Z" fill="white"/>
<circle cx="509" cy="62.5" r="3" fill="#E6E6F0"/>
<g clip-path="url(#clip1_22728_8148)">
<path d="M542 62.5733C542 55.9054 536.627 50.5 530 50.5C523.373 50.5 518 55.9054 518 62.5733C518 68.5995 522.388 73.5943 528.125 74.5V66.0633H525.078V62.5733H528.125V59.9134C528.125 56.8875 529.917 55.2161 532.658 55.2161C533.97 55.2161 535.344 55.452 535.344 55.452V58.4231H533.831C532.34 58.4231 531.875 59.3538 531.875 60.3086V62.5733H535.203L534.671 66.0633H531.875V74.5C537.612 73.5943 542 68.5995 542 62.5733Z" fill="white"/>
</g>
</g>
<g clip-path="url(#clip2_22728_8148)">
<path d="M64.9567 105H60V140.799H64.9567V127.518C64.9567 125.271 65.5156 123.498 66.6333 122.25C67.7509 121.002 69.2817 120.353 71.1769 120.353C72.8049 120.353 74.1655 120.952 75.2589 122.1C76.3523 123.274 76.9112 124.747 76.9112 126.519V140.824H81.8922V126.519C81.8922 123.224 80.9932 120.628 79.1951 118.68C77.3971 116.733 75.0402 115.76 72.1731 115.76C71.347 115.76 70.5209 115.859 69.7191 116.084C68.8929 116.309 68.2369 116.558 67.7024 116.833C67.1678 117.108 66.6576 117.407 66.1959 117.757C65.7342 118.106 65.4184 118.356 65.2726 118.506C65.1268 118.655 65.0053 118.755 64.9567 118.83V105Z" fill="#F0145A"/>
<path d="M92.9727 105H87.8628V140.769H92.9727V105Z" fill="white"/>
<path d="M123.112 130.294L123.367 127.739C123.367 124.315 122.243 121.453 119.943 119.154C117.644 116.855 114.783 115.73 111.359 115.73C107.935 115.73 104.972 116.957 102.519 119.41C100.066 121.862 98.8398 124.775 98.8398 128.25C98.8398 131.826 100.117 134.892 102.621 137.447C105.125 140.002 108.14 141.28 111.614 141.28C112.943 141.28 114.169 141.075 115.396 140.718C116.622 140.309 117.644 139.9 118.359 139.491C119.126 139.031 119.892 138.52 120.557 137.958C121.221 137.396 121.681 136.987 121.885 136.732C122.09 136.476 122.243 136.323 122.345 136.17L119.024 132.848L118.257 133.819C117.746 134.432 116.878 135.046 115.651 135.71C114.374 136.374 113.045 136.681 111.614 136.681C109.622 136.681 107.935 136.068 106.505 134.79C105.074 133.513 104.205 132.031 103.95 130.294H123.112ZM111.359 120.074C113.25 120.074 114.783 120.636 116.06 121.709C117.286 122.833 118.053 124.213 118.359 125.95H104.154C104.614 124.213 105.432 122.833 106.709 121.709C107.935 120.636 109.519 120.074 111.359 120.074Z" fill="white"/>
<path d="M146.943 139.287C146.943 141.535 146.279 143.375 144.899 144.805C143.571 146.185 141.884 146.9 139.789 146.9C138.869 146.9 137.95 146.747 137.081 146.492C136.212 146.236 135.548 145.93 134.986 145.572C134.424 145.214 133.913 144.857 133.402 144.397C132.942 143.937 132.635 143.63 132.482 143.477C132.329 143.324 132.227 143.17 132.124 143.068L128.803 146.389L129.212 146.9C129.467 147.258 129.927 147.718 130.54 148.229C131.154 148.689 131.869 149.2 132.687 149.711C133.504 150.171 134.526 150.58 135.804 150.937C137.081 151.295 138.41 151.499 139.789 151.499C143.264 151.499 146.125 150.324 148.527 147.974C150.878 145.572 152.053 142.71 152.053 139.236V116.241H146.943V118.796L146.074 118.03C145.512 117.519 144.644 117.008 143.417 116.497C142.191 115.986 140.862 115.73 139.534 115.73C136.417 115.73 133.76 116.906 131.46 119.307C129.161 121.709 128.037 124.57 128.037 127.994C128.037 131.418 129.161 134.279 131.46 136.681C133.76 139.082 136.417 140.258 139.534 140.258C140.402 140.258 141.22 140.155 142.089 139.951C142.906 139.696 143.571 139.44 144.133 139.185C144.695 138.929 145.206 138.623 145.666 138.265C146.125 137.907 146.483 137.652 146.585 137.549L146.943 137.192V139.287ZM133.146 127.994C133.146 125.848 133.811 124.06 135.19 122.578C136.57 121.096 138.205 120.329 140.045 120.329C141.884 120.329 143.519 121.096 144.899 122.578C146.228 124.06 146.943 125.848 146.943 127.994C146.943 130.14 146.228 131.929 144.899 133.411C143.519 134.892 141.884 135.659 140.045 135.659C138.205 135.659 136.57 134.892 135.19 133.411C133.811 131.929 133.146 130.14 133.146 127.994Z" fill="white"/>
<path d="M178.724 140.769V124.928C178.724 122.322 177.753 120.125 175.862 118.388C173.972 116.599 171.519 115.73 168.504 115.73C167.329 115.73 166.154 115.884 165.03 116.19C163.905 116.548 162.986 116.906 162.321 117.315C161.657 117.723 160.993 118.183 160.38 118.745C159.766 119.256 159.409 119.614 159.204 119.818C159.051 120.023 158.898 120.176 158.796 120.329L162.117 123.651L162.781 122.782C163.19 122.22 163.905 121.709 164.978 121.147C166.051 120.585 167.227 120.329 168.504 120.329C169.986 120.329 171.212 120.789 172.183 121.658C173.154 122.527 173.614 123.651 173.614 124.928L164.672 126.461C162.475 126.819 160.686 127.687 159.46 129.067C158.182 130.447 157.518 132.133 157.518 134.126C157.518 136.017 158.336 137.652 159.971 139.082C161.657 140.564 163.701 141.28 166.205 141.28C167.073 141.28 167.891 141.177 168.709 140.922C169.577 140.718 170.242 140.462 170.804 140.207C171.366 139.951 171.877 139.645 172.337 139.287C172.796 138.929 173.103 138.674 173.307 138.571C173.461 138.418 173.563 138.265 173.614 138.214V140.769H178.724ZM166.971 136.681C165.643 136.681 164.57 136.374 163.803 135.761C162.986 135.148 162.628 134.432 162.628 133.615C162.628 132.746 162.883 131.98 163.445 131.418C164.008 130.856 164.774 130.447 165.694 130.294L173.614 129.016V129.527C173.614 131.826 173.052 133.564 171.877 134.841C170.701 136.068 169.066 136.681 166.971 136.681Z" fill="white"/>
<path d="M190 105H184.89V140.769H190V105Z" fill="white"/>
<path d="M60 158.118H61.5991V163.725H65.064V165.028H60V158.118Z" fill="white"/>
<path d="M75.5016 163.548H72.2934L71.6814 165.028H70.0428L73.1226 158.118H74.702L77.7917 165.028H76.1136L75.5016 163.548ZM74.9982 162.333L73.9025 159.688L72.8067 162.333H74.9982Z" fill="white"/>
<path d="M93.5121 158.118L91.2516 165.028H89.534L88.0138 160.349L86.4443 165.028H84.7366L82.4662 158.118H84.1245L85.6842 162.975L87.313 158.118H88.7937L90.3731 163.015L91.9821 158.118H93.5121Z" fill="white"/>
<path d="M110.523 165.147C109.819 165.147 109.181 164.995 108.608 164.693C108.042 164.383 107.595 163.959 107.266 163.419C106.943 162.873 106.782 162.258 106.782 161.573C106.782 160.889 106.943 160.277 107.266 159.737C107.595 159.191 108.042 158.767 108.608 158.464C109.181 158.155 109.822 158 110.533 158C111.132 158 111.672 158.105 112.152 158.316C112.639 158.526 113.047 158.829 113.376 159.224L112.349 160.172C111.882 159.632 111.303 159.362 110.612 159.362C110.184 159.362 109.803 159.458 109.467 159.649C109.131 159.833 108.868 160.093 108.677 160.428C108.493 160.764 108.401 161.146 108.401 161.573C108.401 162.001 108.493 162.383 108.677 162.718C108.868 163.054 109.131 163.317 109.467 163.508C109.803 163.692 110.184 163.785 110.612 163.785C111.303 163.785 111.882 163.511 112.349 162.965L113.376 163.913C113.047 164.314 112.639 164.62 112.152 164.831C111.665 165.042 111.122 165.147 110.523 165.147Z" fill="white"/>
<path d="M122.593 165.147C121.876 165.147 121.228 164.992 120.649 164.683C120.076 164.374 119.625 163.949 119.296 163.409C118.974 162.863 118.813 162.251 118.813 161.573C118.813 160.896 118.974 160.287 119.296 159.747C119.625 159.201 120.076 158.773 120.649 158.464C121.228 158.155 121.876 158 122.593 158C123.311 158 123.956 158.155 124.528 158.464C125.101 158.773 125.551 159.201 125.88 159.747C126.209 160.287 126.374 160.896 126.374 161.573C126.374 162.251 126.209 162.863 125.88 163.409C125.551 163.949 125.101 164.374 124.528 164.683C123.956 164.992 123.311 165.147 122.593 165.147ZM122.593 163.785C123.001 163.785 123.37 163.692 123.699 163.508C124.028 163.317 124.285 163.054 124.469 162.718C124.66 162.383 124.755 162.001 124.755 161.573C124.755 161.146 124.66 160.764 124.469 160.428C124.285 160.093 124.028 159.833 123.699 159.649C123.37 159.458 123.001 159.362 122.593 159.362C122.185 159.362 121.817 159.458 121.488 159.649C121.159 159.833 120.899 160.093 120.708 160.428C120.524 160.764 120.431 161.146 120.431 161.573C120.431 162.001 120.524 162.383 120.708 162.718C120.899 163.054 121.159 163.317 121.488 163.508C121.817 163.692 122.185 163.785 122.593 163.785Z" fill="white"/>
<path d="M138.799 165.028L138.79 160.882L136.756 164.298H136.036L134.012 160.971V165.028H132.511V158.118H133.834L136.42 162.412L138.967 158.118H140.28L140.3 165.028H138.799Z" fill="white"/>
<path d="M149.866 158.118C150.478 158.118 151.008 158.22 151.455 158.424C151.909 158.628 152.258 158.918 152.502 159.293C152.745 159.668 152.867 160.112 152.867 160.626C152.867 161.132 152.745 161.577 152.502 161.958C152.258 162.333 151.909 162.623 151.455 162.827C151.008 163.024 150.478 163.123 149.866 163.123H148.474V165.028H146.875V158.118H149.866ZM149.777 161.82C150.257 161.82 150.623 161.718 150.873 161.514C151.123 161.304 151.248 161.007 151.248 160.626C151.248 160.237 151.123 159.941 150.873 159.737C150.623 159.527 150.257 159.421 149.777 159.421H148.474V161.82H149.777Z" fill="white"/>
<path d="M163.148 163.548H159.94L159.328 165.028H157.689L160.769 158.118H162.348L165.438 165.028H163.76L163.148 163.548ZM162.644 162.333L161.549 159.688L160.453 162.333H162.644Z" fill="white"/>
<path d="M177.428 158.118V165.028H176.115L172.67 160.833V165.028H171.09V158.118H172.413L175.848 162.314V158.118H177.428Z" fill="white"/>
<path d="M187.315 162.58V165.028H185.716V162.561L183.041 158.118H184.739L186.585 161.188L188.43 158.118H190L187.315 162.58Z" fill="white"/>
<path fill-rule="evenodd" clip-rule="evenodd" d="M209.175 105H215L199.825 152H194L209.175 105Z" fill="#F0145A"/>
<path d="M227.64 140.18C226.104 140.18 224.628 139.964 223.212 139.532C221.82 139.076 220.728 138.512 219.936 137.84L221.088 135.824C221.88 136.448 222.876 136.964 224.076 137.372C225.276 137.756 226.524 137.948 227.82 137.948C229.548 137.948 230.82 137.684 231.636 137.156C232.476 136.604 232.896 135.836 232.896 134.852C232.896 134.156 232.668 133.616 232.212 133.232C231.756 132.824 231.18 132.524 230.484 132.332C229.788 132.116 228.864 131.912 227.712 131.72C226.176 131.432 224.94 131.144 224.004 130.856C223.068 130.544 222.264 130.028 221.592 129.308C220.944 128.588 220.62 127.592 220.62 126.32C220.62 124.736 221.28 123.44 222.6 122.432C223.92 121.424 225.756 120.92 228.108 120.92C229.332 120.92 230.556 121.088 231.78 121.424C233.004 121.736 234.012 122.156 234.804 122.684L233.688 124.736C232.128 123.656 230.268 123.116 228.108 123.116C226.476 123.116 225.24 123.404 224.4 123.98C223.584 124.556 223.176 125.312 223.176 126.248C223.176 126.968 223.404 127.544 223.86 127.976C224.34 128.408 224.928 128.732 225.624 128.948C226.32 129.14 227.28 129.344 228.504 129.56C230.016 129.848 231.228 130.136 232.14 130.424C233.052 130.712 233.832 131.204 234.48 131.9C235.128 132.596 235.452 133.556 235.452 134.78C235.452 136.436 234.756 137.756 233.364 138.74C231.996 139.7 230.088 140.18 227.64 140.18ZM256.665 131.324H240.825C240.969 133.292 241.725 134.888 243.093 136.112C244.461 137.312 246.189 137.912 248.277 137.912C249.453 137.912 250.533 137.708 251.517 137.3C252.501 136.868 253.353 136.244 254.073 135.428L255.513 137.084C254.673 138.092 253.617 138.86 252.345 139.388C251.097 139.916 249.717 140.18 248.205 140.18C246.261 140.18 244.533 139.772 243.021 138.956C241.533 138.116 240.369 136.964 239.529 135.5C238.689 134.036 238.269 132.38 238.269 130.532C238.269 128.684 238.665 127.028 239.457 125.564C240.273 124.1 241.377 122.96 242.769 122.144C244.185 121.328 245.769 120.92 247.521 120.92C249.273 120.92 250.845 121.328 252.237 122.144C253.629 122.96 254.721 124.1 255.513 125.564C256.305 127.004 256.701 128.66 256.701 130.532L256.665 131.324ZM247.521 123.116C245.697 123.116 244.161 123.704 242.913 124.88C241.689 126.032 240.993 127.544 240.825 129.416H254.253C254.085 127.544 253.377 126.032 252.129 124.88C250.905 123.704 249.369 123.116 247.521 123.116ZM264.352 124.772C264.952 123.5 265.84 122.54 267.016 121.892C268.216 121.244 269.692 120.92 271.444 120.92V123.404L270.832 123.368C268.84 123.368 267.28 123.98 266.152 125.204C265.024 126.428 264.46 128.144 264.46 130.352V140H261.904V121.064H264.352V124.772ZM292.792 121.064L284.368 140H281.74L273.352 121.064H276.016L283.108 137.192L290.272 121.064H292.792ZM296.392 121.064H298.948V140H296.392V121.064ZM297.688 116.924C297.16 116.924 296.716 116.744 296.356 116.384C295.996 116.024 295.816 115.592 295.816 115.088C295.816 114.608 295.996 114.188 296.356 113.828C296.716 113.468 297.16 113.288 297.688 113.288C298.216 113.288 298.66 113.468 299.02 113.828C299.38 114.164 299.56 114.572 299.56 115.052C299.56 115.58 299.38 116.024 299.02 116.384C298.66 116.744 298.216 116.924 297.688 116.924ZM313.908 140.18C312.036 140.18 310.356 139.772 308.868 138.956C307.404 138.14 306.252 137 305.412 135.536C304.572 134.048 304.152 132.38 304.152 130.532C304.152 128.684 304.572 127.028 305.412 125.564C306.252 124.1 307.404 122.96 308.868 122.144C310.356 121.328 312.036 120.92 313.908 120.92C315.54 120.92 316.992 121.244 318.264 121.892C319.56 122.516 320.58 123.44 321.324 124.664L319.416 125.96C318.792 125.024 318 124.328 317.04 123.872C316.08 123.392 315.036 123.152 313.908 123.152C312.54 123.152 311.304 123.464 310.2 124.088C309.12 124.688 308.268 125.552 307.644 126.68C307.044 127.808 306.744 129.092 306.744 130.532C306.744 131.996 307.044 133.292 307.644 134.42C308.268 135.524 309.12 136.388 310.2 137.012C311.304 137.612 312.54 137.912 313.908 137.912C315.036 137.912 316.08 137.684 317.04 137.228C318 136.772 318.792 136.076 319.416 135.14L321.324 136.436C320.58 137.66 319.56 138.596 318.264 139.244C316.968 139.868 315.516 140.18 313.908 140.18ZM342.517 131.324H326.677C326.821 133.292 327.577 134.888 328.945 136.112C330.313 137.312 332.041 137.912 334.129 137.912C335.305 137.912 336.385 137.708 337.369 137.3C338.353 136.868 339.205 136.244 339.925 135.428L341.365 137.084C340.525 138.092 339.469 138.86 338.197 139.388C336.949 139.916 335.569 140.18 334.057 140.18C332.113 140.18 330.385 139.772 328.873 138.956C327.385 138.116 326.221 136.964 325.381 135.5C324.541 134.036 324.121 132.38 324.121 130.532C324.121 128.684 324.517 127.028 325.309 125.564C326.125 124.1 327.229 122.96 328.621 122.144C330.037 121.328 331.621 120.92 333.373 120.92C335.125 120.92 336.697 121.328 338.089 122.144C339.481 122.96 340.573 124.1 341.365 125.564C342.157 127.004 342.553 128.66 342.553 130.532L342.517 131.324ZM333.373 123.116C331.549 123.116 330.013 123.704 328.765 124.88C327.541 126.032 326.845 127.544 326.677 129.416H340.105C339.937 127.544 339.229 126.032 337.981 124.88C336.757 123.704 335.221 123.116 333.373 123.116ZM352.831 140.18C351.295 140.18 349.819 139.964 348.403 139.532C347.011 139.076 345.919 138.512 345.127 137.84L346.279 135.824C347.071 136.448 348.067 136.964 349.267 137.372C350.467 137.756 351.715 137.948 353.011 137.948C354.739 137.948 356.011 137.684 356.827 137.156C357.667 136.604 358.087 135.836 358.087 134.852C358.087 134.156 357.859 133.616 357.403 133.232C356.947 132.824 356.371 132.524 355.675 132.332C354.979 132.116 354.055 131.912 352.903 131.72C351.367 131.432 350.131 131.144 349.195 130.856C348.259 130.544 347.455 130.028 346.783 129.308C346.135 128.588 345.811 127.592 345.811 126.32C345.811 124.736 346.471 123.44 347.791 122.432C349.111 121.424 350.947 120.92 353.299 120.92C354.523 120.92 355.747 121.088 356.971 121.424C358.195 121.736 359.203 122.156 359.995 122.684L358.879 124.736C357.319 123.656 355.459 123.116 353.299 123.116C351.667 123.116 350.431 123.404 349.591 123.98C348.775 124.556 348.367 125.312 348.367 126.248C348.367 126.968 348.595 127.544 349.051 127.976C349.531 128.408 350.119 128.732 350.815 128.948C351.511 129.14 352.471 129.344 353.695 129.56C355.207 129.848 356.419 130.136 357.331 130.424C358.243 130.712 359.023 131.204 359.671 131.9C360.319 132.596 360.643 133.556 360.643 134.78C360.643 136.436 359.947 137.756 358.555 138.74C357.187 139.7 355.279 140.18 352.831 140.18Z" fill="white"/>
</g>
<path d="M65.2646 202.264C66.598 202.264 67.622 202.584 68.3366 203.224C69.0513 203.853 69.4086 204.808 69.4086 206.088V211H67.0726V209.928C66.6033 210.728 65.7286 211.128 64.4486 211.128C63.7873 211.128 63.2113 211.016 62.7206 210.792C62.2406 210.568 61.8726 210.259 61.6166 209.864C61.3606 209.469 61.2326 209.021 61.2326 208.52C61.2326 207.72 61.5313 207.091 62.1286 206.632C62.7366 206.173 63.67 205.944 64.9286 205.944H66.9126C66.9126 205.4 66.7473 204.984 66.4166 204.696C66.086 204.397 65.59 204.248 64.9286 204.248C64.47 204.248 64.0166 204.323 63.5686 204.472C63.1313 204.611 62.758 204.803 62.4486 205.048L61.5526 203.304C62.022 202.973 62.582 202.717 63.2326 202.536C63.894 202.355 64.5713 202.264 65.2646 202.264ZM65.0726 209.448C65.4993 209.448 65.878 209.352 66.2086 209.16C66.5393 208.957 66.774 208.664 66.9126 208.28V207.4H65.2006C64.1766 207.4 63.6646 207.736 63.6646 208.408C63.6646 208.728 63.7873 208.984 64.0326 209.176C64.2886 209.357 64.6353 209.448 65.0726 209.448ZM76.7556 202.264C77.5556 202.264 78.281 202.451 78.9316 202.824C79.593 203.187 80.1103 203.704 80.4836 204.376C80.857 205.037 81.0436 205.811 81.0436 206.696C81.0436 207.581 80.857 208.36 80.4836 209.032C80.1103 209.693 79.593 210.211 78.9316 210.584C78.281 210.947 77.5556 211.128 76.7556 211.128C75.5716 211.128 74.6703 210.755 74.0516 210.008V211H71.6676V199.128H74.1636V203.304C74.793 202.611 75.657 202.264 76.7556 202.264ZM76.3236 209.08C76.9636 209.08 77.4863 208.867 77.8916 208.44C78.3076 208.003 78.5156 207.421 78.5156 206.696C78.5156 205.971 78.3076 205.395 77.8916 204.968C77.4863 204.531 76.9636 204.312 76.3236 204.312C75.6836 204.312 75.1556 204.531 74.7396 204.968C74.3343 205.395 74.1316 205.971 74.1316 206.696C74.1316 207.421 74.3343 208.003 74.7396 208.44C75.1556 208.867 75.6836 209.08 76.3236 209.08ZM86.8105 211.128C85.9038 211.128 85.0878 210.941 84.3625 210.568C83.6478 210.184 83.0878 209.656 82.6825 208.984C82.2772 208.312 82.0745 207.549 82.0745 206.696C82.0745 205.843 82.2772 205.08 82.6825 204.408C83.0878 203.736 83.6478 203.213 84.3625 202.84C85.0878 202.456 85.9038 202.264 86.8105 202.264C87.7172 202.264 88.5278 202.456 89.2425 202.84C89.9572 203.213 90.5172 203.736 90.9225 204.408C91.3278 205.08 91.5305 205.843 91.5305 206.696C91.5305 207.549 91.3278 208.312 90.9225 208.984C90.5172 209.656 89.9572 210.184 89.2425 210.568C88.5278 210.941 87.7172 211.128 86.8105 211.128ZM86.8105 209.08C87.4505 209.08 87.9732 208.867 88.3785 208.44C88.7945 208.003 89.0025 207.421 89.0025 206.696C89.0025 205.971 88.7945 205.395 88.3785 204.968C87.9732 204.531 87.4505 204.312 86.8105 204.312C86.1705 204.312 85.6425 204.531 85.2265 204.968C84.8105 205.395 84.6025 205.971 84.6025 206.696C84.6025 207.421 84.8105 208.003 85.2265 208.44C85.6425 208.867 86.1705 209.08 86.8105 209.08ZM101.871 202.392V211H99.5029V209.976C99.1722 210.349 98.7775 210.637 98.3189 210.84C97.8602 211.032 97.3642 211.128 96.8309 211.128C95.7002 211.128 94.8042 210.803 94.1429 210.152C93.4815 209.501 93.1509 208.536 93.1509 207.256V202.392H95.6469V206.888C95.6469 208.275 96.2282 208.968 97.3909 208.968C97.9882 208.968 98.4682 208.776 98.8309 208.392C99.1935 207.997 99.3749 207.416 99.3749 206.648V202.392H101.871ZM109.735 210.584C109.49 210.765 109.186 210.904 108.823 211C108.471 211.085 108.098 211.128 107.703 211.128C106.679 211.128 105.885 210.867 105.319 210.344C104.765 209.821 104.487 209.053 104.487 208.04V204.504H103.159V202.584H104.487V200.488H106.983V202.584H109.127V204.504H106.983V208.008C106.983 208.371 107.074 208.653 107.255 208.856C107.447 209.048 107.714 209.144 108.055 209.144C108.45 209.144 108.786 209.037 109.063 208.824L109.735 210.584ZM124.34 202.392V211H121.972V209.976C121.641 210.349 121.246 210.637 120.788 210.84C120.329 211.032 119.833 211.128 119.3 211.128C118.169 211.128 117.273 210.803 116.612 210.152C115.95 209.501 115.62 208.536 115.62 207.256V202.392H118.116V206.888C118.116 208.275 118.697 208.968 119.86 208.968C120.457 208.968 120.937 208.776 121.3 208.392C121.662 207.997 121.844 207.416 121.844 206.648V202.392H124.34ZM129.548 211.128C128.833 211.128 128.135 211.043 127.452 210.872C126.769 210.691 126.225 210.467 125.82 210.2L126.652 208.408C127.036 208.653 127.5 208.856 128.044 209.016C128.588 209.165 129.121 209.24 129.644 209.24C130.7 209.24 131.228 208.979 131.228 208.456C131.228 208.211 131.084 208.035 130.796 207.928C130.508 207.821 130.065 207.731 129.468 207.656C128.764 207.549 128.183 207.427 127.724 207.288C127.265 207.149 126.865 206.904 126.524 206.552C126.193 206.2 126.028 205.699 126.028 205.048C126.028 204.504 126.183 204.024 126.492 203.608C126.812 203.181 127.271 202.851 127.868 202.616C128.476 202.381 129.191 202.264 130.012 202.264C130.62 202.264 131.223 202.333 131.82 202.472C132.428 202.6 132.929 202.781 133.324 203.016L132.492 204.792C131.735 204.365 130.908 204.152 130.012 204.152C129.479 204.152 129.079 204.227 128.812 204.376C128.545 204.525 128.412 204.717 128.412 204.952C128.412 205.219 128.556 205.405 128.844 205.512C129.132 205.619 129.591 205.72 130.22 205.816C130.924 205.933 131.5 206.061 131.948 206.2C132.396 206.328 132.785 206.568 133.116 206.92C133.447 207.272 133.612 207.763 133.612 208.392C133.612 208.925 133.452 209.4 133.132 209.816C132.812 210.232 132.343 210.557 131.724 210.792C131.116 211.016 130.391 211.128 129.548 211.128Z" fill="white"/>
<path d="M154.017 211.128C153.302 211.128 152.603 211.043 151.921 210.872C151.238 210.691 150.694 210.467 150.289 210.2L151.121 208.408C151.505 208.653 151.969 208.856 152.513 209.016C153.057 209.165 153.59 209.24 154.113 209.24C155.169 209.24 155.697 208.979 155.697 208.456C155.697 208.211 155.553 208.035 155.265 207.928C154.977 207.821 154.534 207.731 153.937 207.656C153.233 207.549 152.651 207.427 152.193 207.288C151.734 207.149 151.334 206.904 150.993 206.552C150.662 206.2 150.497 205.699 150.497 205.048C150.497 204.504 150.651 204.024 150.961 203.608C151.281 203.181 151.739 202.851 152.337 202.616C152.945 202.381 153.659 202.264 154.481 202.264C155.089 202.264 155.691 202.333 156.289 202.472C156.897 202.6 157.398 202.781 157.793 203.016L156.961 204.792C156.203 204.365 155.377 204.152 154.481 204.152C153.947 204.152 153.547 204.227 153.281 204.376C153.014 204.525 152.881 204.717 152.881 204.952C152.881 205.219 153.025 205.405 153.313 205.512C153.601 205.619 154.059 205.72 154.689 205.816C155.393 205.933 155.969 206.061 156.417 206.2C156.865 206.328 157.254 206.568 157.585 206.92C157.915 207.272 158.081 207.763 158.081 208.392C158.081 208.925 157.921 209.4 157.601 209.816C157.281 210.232 156.811 210.557 156.193 210.792C155.585 211.016 154.859 211.128 154.017 211.128ZM168.053 206.728C168.053 206.76 168.037 206.984 168.005 207.4H161.493C161.61 207.933 161.887 208.355 162.325 208.664C162.762 208.973 163.306 209.128 163.957 209.128C164.405 209.128 164.799 209.064 165.141 208.936C165.493 208.797 165.818 208.584 166.117 208.296L167.445 209.736C166.634 210.664 165.45 211.128 163.893 211.128C162.922 211.128 162.063 210.941 161.317 210.568C160.57 210.184 159.994 209.656 159.589 208.984C159.183 208.312 158.981 207.549 158.981 206.696C158.981 205.853 159.178 205.096 159.573 204.424C159.978 203.741 160.527 203.213 161.221 202.84C161.925 202.456 162.709 202.264 163.573 202.264C164.415 202.264 165.178 202.445 165.861 202.808C166.543 203.171 167.077 203.693 167.461 204.376C167.855 205.048 168.053 205.832 168.053 206.728ZM163.589 204.152C163.023 204.152 162.549 204.312 162.165 204.632C161.781 204.952 161.546 205.389 161.461 205.944H165.701C165.615 205.4 165.381 204.968 164.997 204.648C164.613 204.317 164.143 204.152 163.589 204.152ZM172.099 203.528C172.397 203.112 172.797 202.797 173.299 202.584C173.811 202.371 174.397 202.264 175.059 202.264V204.568C174.781 204.547 174.595 204.536 174.499 204.536C173.784 204.536 173.224 204.739 172.819 205.144C172.413 205.539 172.211 206.136 172.211 206.936V211H169.715V202.392H172.099V203.528ZM185.384 202.392L181.752 211H179.176L175.559 202.392H178.136L180.52 208.248L182.984 202.392H185.384ZM186.402 202.392H188.898V211H186.402V202.392ZM187.65 201.192C187.191 201.192 186.818 201.059 186.53 200.792C186.242 200.525 186.098 200.195 186.098 199.8C186.098 199.405 186.242 199.075 186.53 198.808C186.818 198.541 187.191 198.408 187.65 198.408C188.109 198.408 188.482 198.536 188.77 198.792C189.058 199.048 189.202 199.368 189.202 199.752C189.202 200.168 189.058 200.515 188.77 200.792C188.482 201.059 188.109 201.192 187.65 201.192ZM195.375 211.128C194.457 211.128 193.631 210.941 192.895 210.568C192.169 210.184 191.599 209.656 191.183 208.984C190.777 208.312 190.575 207.549 190.575 206.696C190.575 205.843 190.777 205.08 191.183 204.408C191.599 203.736 192.169 203.213 192.895 202.84C193.631 202.456 194.457 202.264 195.375 202.264C196.281 202.264 197.071 202.456 197.743 202.84C198.425 203.213 198.921 203.752 199.231 204.456L197.295 205.496C196.847 204.707 196.201 204.312 195.359 204.312C194.708 204.312 194.169 204.525 193.743 204.952C193.316 205.379 193.103 205.96 193.103 206.696C193.103 207.432 193.316 208.013 193.743 208.44C194.169 208.867 194.708 209.08 195.359 209.08C196.212 209.08 196.857 208.685 197.295 207.896L199.231 208.952C198.921 209.635 198.425 210.168 197.743 210.552C197.071 210.936 196.281 211.128 195.375 211.128ZM208.99 206.728C208.99 206.76 208.974 206.984 208.942 207.4H202.43C202.548 207.933 202.825 208.355 203.262 208.664C203.7 208.973 204.244 209.128 204.894 209.128C205.342 209.128 205.737 209.064 206.078 208.936C206.43 208.797 206.756 208.584 207.054 208.296L208.382 209.736C207.572 210.664 206.388 211.128 204.83 211.128C203.86 211.128 203.001 210.941 202.254 210.568C201.508 210.184 200.932 209.656 200.526 208.984C200.121 208.312 199.918 207.549 199.918 206.696C199.918 205.853 200.116 205.096 200.51 204.424C200.916 203.741 201.465 203.213 202.158 202.84C202.862 202.456 203.646 202.264 204.51 202.264C205.353 202.264 206.116 202.445 206.798 202.808C207.481 203.171 208.014 203.693 208.398 204.376C208.793 205.048 208.99 205.832 208.99 206.728ZM204.526 204.152C203.961 204.152 203.486 204.312 203.102 204.632C202.718 204.952 202.484 205.389 202.398 205.944H206.638C206.553 205.4 206.318 204.968 205.934 204.648C205.55 204.317 205.081 204.152 204.526 204.152ZM213.548 211.128C212.833 211.128 212.135 211.043 211.452 210.872C210.769 210.691 210.225 210.467 209.82 210.2L210.652 208.408C211.036 208.653 211.5 208.856 212.044 209.016C212.588 209.165 213.121 209.24 213.644 209.24C214.7 209.24 215.228 208.979 215.228 208.456C215.228 208.211 215.084 208.035 214.796 207.928C214.508 207.821 214.065 207.731 213.468 207.656C212.764 207.549 212.183 207.427 211.724 207.288C211.265 207.149 210.865 206.904 210.524 206.552C210.193 206.2 210.028 205.699 210.028 205.048C210.028 204.504 210.183 204.024 210.492 203.608C210.812 203.181 211.271 202.851 211.868 202.616C212.476 202.381 213.191 202.264 214.012 202.264C214.62 202.264 215.223 202.333 215.82 202.472C216.428 202.6 216.929 202.781 217.324 203.016L216.492 204.792C215.735 204.365 214.908 204.152 214.012 204.152C213.479 204.152 213.079 204.227 212.812 204.376C212.545 204.525 212.412 204.717 212.412 204.952C212.412 205.219 212.556 205.405 212.844 205.512C213.132 205.619 213.591 205.72 214.22 205.816C214.924 205.933 215.5 206.061 215.948 206.2C216.396 206.328 216.785 206.568 217.116 206.92C217.447 207.272 217.612 207.763 217.612 208.392C217.612 208.925 217.452 209.4 217.132 209.816C216.812 210.232 216.343 210.557 215.724 210.792C215.116 211.016 214.391 211.128 213.548 211.128Z" fill="#F0145A"/>
<rect x="149" y="218" width="69" height="2" fill="#F0145A"/>
<path d="M240.501 210.584C240.256 210.765 239.952 210.904 239.589 211C239.237 211.085 238.864 211.128 238.469 211.128C237.445 211.128 236.65 210.867 236.085 210.344C235.53 209.821 235.253 209.053 235.253 208.04V204.504H233.925V202.584H235.253V200.488H237.749V202.584H239.893V204.504H237.749V208.008C237.749 208.371 237.84 208.653 238.021 208.856C238.213 209.048 238.48 209.144 238.821 209.144C239.216 209.144 239.552 209.037 239.829 208.824L240.501 210.584ZM250.068 206.728C250.068 206.76 250.052 206.984 250.02 207.4H243.508C243.626 207.933 243.903 208.355 244.34 208.664C244.778 208.973 245.322 209.128 245.972 209.128C246.42 209.128 246.815 209.064 247.156 208.936C247.508 208.797 247.834 208.584 248.132 208.296L249.46 209.736C248.65 210.664 247.466 211.128 245.908 211.128C244.938 211.128 244.079 210.941 243.332 210.568C242.586 210.184 242.01 209.656 241.604 208.984C241.199 208.312 240.996 207.549 240.996 206.696C240.996 205.853 241.194 205.096 241.588 204.424C241.994 203.741 242.543 203.213 243.236 202.84C243.94 202.456 244.724 202.264 245.588 202.264C246.431 202.264 247.194 202.445 247.876 202.808C248.559 203.171 249.092 203.693 249.476 204.376C249.871 205.048 250.068 205.832 250.068 206.728ZM245.604 204.152C245.039 204.152 244.564 204.312 244.18 204.632C243.796 204.952 243.562 205.389 243.476 205.944H247.716C247.631 205.4 247.396 204.968 247.012 204.648C246.628 204.317 246.159 204.152 245.604 204.152ZM254.968 202.264C256.301 202.264 257.325 202.584 258.04 203.224C258.754 203.853 259.112 204.808 259.112 206.088V211H256.776V209.928C256.306 210.728 255.432 211.128 254.152 211.128C253.49 211.128 252.914 211.016 252.424 210.792C251.944 210.568 251.576 210.259 251.32 209.864C251.064 209.469 250.936 209.021 250.936 208.52C250.936 207.72 251.234 207.091 251.832 206.632C252.44 206.173 253.373 205.944 254.632 205.944H256.616C256.616 205.4 256.45 204.984 256.12 204.696C255.789 204.397 255.293 204.248 254.632 204.248C254.173 204.248 253.72 204.323 253.272 204.472C252.834 204.611 252.461 204.803 252.152 205.048L251.256 203.304C251.725 202.973 252.285 202.717 252.936 202.536C253.597 202.355 254.274 202.264 254.968 202.264ZM254.776 209.448C255.202 209.448 255.581 209.352 255.912 209.16C256.242 208.957 256.477 208.664 256.616 208.28V207.4H254.904C253.88 207.4 253.368 207.736 253.368 208.408C253.368 208.728 253.49 208.984 253.736 209.176C253.992 209.357 254.338 209.448 254.776 209.448ZM272.395 202.264C273.472 202.264 274.325 202.584 274.955 203.224C275.595 203.853 275.915 204.803 275.915 206.072V211H273.419V206.456C273.419 205.773 273.275 205.267 272.987 204.936C272.709 204.595 272.309 204.424 271.787 204.424C271.2 204.424 270.736 204.616 270.395 205C270.053 205.373 269.883 205.933 269.883 206.68V211H267.387V206.456C267.387 205.101 266.843 204.424 265.755 204.424C265.179 204.424 264.72 204.616 264.379 205C264.037 205.373 263.867 205.933 263.867 206.68V211H261.371V202.392H263.755V203.384C264.075 203.021 264.464 202.744 264.923 202.552C265.392 202.36 265.904 202.264 266.459 202.264C267.067 202.264 267.616 202.387 268.107 202.632C268.597 202.867 268.992 203.213 269.291 203.672C269.643 203.224 270.085 202.877 270.619 202.632C271.163 202.387 271.755 202.264 272.395 202.264Z" fill="white"/>
<path d="M298.396 202.264C299.196 202.264 299.922 202.451 300.572 202.824C301.234 203.187 301.751 203.704 302.124 204.376C302.498 205.037 302.684 205.811 302.684 206.696C302.684 207.581 302.498 208.36 302.124 209.032C301.751 209.693 301.234 210.211 300.572 210.584C299.922 210.947 299.196 211.128 298.396 211.128C297.298 211.128 296.434 210.781 295.804 210.088V214.104H293.308V202.392H295.692V203.384C296.311 202.637 297.212 202.264 298.396 202.264ZM297.964 209.08C298.604 209.08 299.127 208.867 299.532 208.44C299.948 208.003 300.156 207.421 300.156 206.696C300.156 205.971 299.948 205.395 299.532 204.968C299.127 204.531 298.604 204.312 297.964 204.312C297.324 204.312 296.796 204.531 296.38 204.968C295.975 205.395 295.772 205.971 295.772 206.696C295.772 207.421 295.975 208.003 296.38 208.44C296.796 208.867 297.324 209.08 297.964 209.08ZM313.027 202.392V211H310.659V209.976C310.328 210.349 309.934 210.637 309.475 210.84C309.016 211.032 308.52 211.128 307.987 211.128C306.856 211.128 305.96 210.803 305.299 210.152C304.638 209.501 304.307 208.536 304.307 207.256V202.392H306.803V206.888C306.803 208.275 307.384 208.968 308.547 208.968C309.144 208.968 309.624 208.776 309.987 208.392C310.35 207.997 310.531 207.416 310.531 206.648V202.392H313.027ZM320.428 202.264C321.228 202.264 321.953 202.451 322.604 202.824C323.265 203.187 323.782 203.704 324.156 204.376C324.529 205.037 324.716 205.811 324.716 206.696C324.716 207.581 324.529 208.36 324.156 209.032C323.782 209.693 323.265 210.211 322.604 210.584C321.953 210.947 321.228 211.128 320.428 211.128C319.244 211.128 318.342 210.755 317.724 210.008V211H315.34V199.128H317.836V203.304C318.465 202.611 319.329 202.264 320.428 202.264ZM319.996 209.08C320.636 209.08 321.158 208.867 321.564 208.44C321.98 208.003 322.188 207.421 322.188 206.696C322.188 205.971 321.98 205.395 321.564 204.968C321.158 204.531 320.636 204.312 319.996 204.312C319.356 204.312 318.828 204.531 318.411 204.968C318.006 205.395 317.804 205.971 317.804 206.696C317.804 207.421 318.006 208.003 318.411 208.44C318.828 208.867 319.356 209.08 319.996 209.08ZM326.386 199.128H328.882V211H326.386V199.128ZM331.199 202.392H333.695V211H331.199V202.392ZM332.447 201.192C331.988 201.192 331.615 201.059 331.327 200.792C331.039 200.525 330.895 200.195 330.895 199.8C330.895 199.405 331.039 199.075 331.327 198.808C331.615 198.541 331.988 198.408 332.447 198.408C332.906 198.408 333.279 198.536 333.567 198.792C333.855 199.048 333.999 199.368 333.999 199.752C333.999 200.168 333.855 200.515 333.567 200.792C333.279 201.059 332.906 201.192 332.447 201.192ZM340.171 211.128C339.254 211.128 338.427 210.941 337.691 210.568C336.966 210.184 336.395 209.656 335.979 208.984C335.574 208.312 335.371 207.549 335.371 206.696C335.371 205.843 335.574 205.08 335.979 204.408C336.395 203.736 336.966 203.213 337.691 202.84C338.427 202.456 339.254 202.264 340.171 202.264C341.078 202.264 341.867 202.456 342.539 202.84C343.222 203.213 343.718 203.752 344.027 204.456L342.091 205.496C341.643 204.707 340.998 204.312 340.155 204.312C339.505 204.312 338.966 204.525 338.539 204.952C338.113 205.379 337.899 205.96 337.899 206.696C337.899 207.432 338.113 208.013 338.539 208.44C338.966 208.867 339.505 209.08 340.155 209.08C341.009 209.08 341.654 208.685 342.091 207.896L344.027 208.952C343.718 209.635 343.222 210.168 342.539 210.552C341.867 210.936 341.078 211.128 340.171 211.128ZM348.937 202.264C350.27 202.264 351.294 202.584 352.009 203.224C352.723 203.853 353.081 204.808 353.081 206.088V211H350.745V209.928C350.275 210.728 349.401 211.128 348.121 211.128C347.459 211.128 346.883 211.016 346.393 210.792C345.913 210.568 345.545 210.259 345.289 209.864C345.033 209.469 344.905 209.021 344.905 208.52C344.905 207.72 345.203 207.091 345.801 206.632C346.409 206.173 347.342 205.944 348.601 205.944H350.585C350.585 205.4 350.419 204.984 350.089 204.696C349.758 204.397 349.262 204.248 348.601 204.248C348.142 204.248 347.689 204.323 347.241 204.472C346.803 204.611 346.43 204.803 346.121 205.048L345.225 203.304C345.694 202.973 346.254 202.717 346.905 202.536C347.566 202.355 348.243 202.264 348.937 202.264ZM348.745 209.448C349.171 209.448 349.55 209.352 349.881 209.16C350.211 208.957 350.446 208.664 350.585 208.28V207.4H348.873C347.849 207.4 347.337 207.736 347.337 208.408C347.337 208.728 347.459 208.984 347.705 209.176C347.961 209.357 348.307 209.448 348.745 209.448ZM360.892 210.584C360.646 210.765 360.342 210.904 359.98 211C359.628 211.085 359.254 211.128 358.86 211.128C357.836 211.128 357.041 210.867 356.476 210.344C355.921 209.821 355.644 209.053 355.644 208.04V204.504H354.316V202.584H355.644V200.488H358.14V202.584H360.284V204.504H358.14V208.008C358.14 208.371 358.23 208.653 358.411 208.856C358.604 209.048 358.87 209.144 359.212 209.144C359.606 209.144 359.942 209.037 360.22 208.824L360.892 210.584ZM362.293 202.392H364.789V211H362.293V202.392ZM363.541 201.192C363.082 201.192 362.709 201.059 362.421 200.792C362.133 200.525 361.989 200.195 361.989 199.8C361.989 199.405 362.133 199.075 362.421 198.808C362.709 198.541 363.082 198.408 363.541 198.408C363.999 198.408 364.373 198.536 364.661 198.792C364.949 199.048 365.093 199.368 365.093 199.752C365.093 200.168 364.949 200.515 364.661 200.792C364.373 201.059 363.999 201.192 363.541 201.192ZM371.201 211.128C370.294 211.128 369.478 210.941 368.753 210.568C368.038 210.184 367.478 209.656 367.073 208.984C366.668 208.312 366.465 207.549 366.465 206.696C366.465 205.843 366.668 205.08 367.073 204.408C367.478 203.736 368.038 203.213 368.753 202.84C369.478 202.456 370.294 202.264 371.201 202.264C372.108 202.264 372.918 202.456 373.633 202.84C374.348 203.213 374.908 203.736 375.313 204.408C375.718 205.08 375.921 205.843 375.921 206.696C375.921 207.549 375.718 208.312 375.313 208.984C374.908 209.656 374.348 210.184 373.633 210.568C372.918 210.941 372.108 211.128 371.201 211.128ZM371.201 209.08C371.841 209.08 372.364 208.867 372.769 208.44C373.185 208.003 373.393 207.421 373.393 206.696C373.393 205.971 373.185 205.395 372.769 204.968C372.364 204.531 371.841 204.312 371.201 204.312C370.561 204.312 370.033 204.531 369.617 204.968C369.201 205.395 368.993 205.971 368.993 206.696C368.993 207.421 369.201 208.003 369.617 208.44C370.033 208.867 370.561 209.08 371.201 209.08ZM382.822 202.264C383.888 202.264 384.747 202.584 385.398 203.224C386.059 203.864 386.39 204.813 386.39 206.072V211H383.894V206.456C383.894 205.773 383.744 205.267 383.446 204.936C383.147 204.595 382.715 204.424 382.15 204.424C381.52 204.424 381.019 204.621 380.646 205.016C380.272 205.4 380.086 205.976 380.086 206.744V211H377.59V202.392H379.974V203.4C380.304 203.037 380.715 202.76 381.206 202.568C381.696 202.365 382.235 202.264 382.822 202.264ZM391.548 211.128C390.833 211.128 390.135 211.043 389.452 210.872C388.769 210.691 388.225 210.467 387.82 210.2L388.652 208.408C389.036 208.653 389.5 208.856 390.044 209.016C390.588 209.165 391.121 209.24 391.644 209.24C392.7 209.24 393.228 208.979 393.228 208.456C393.228 208.211 393.084 208.035 392.796 207.928C392.508 207.821 392.065 207.731 391.468 207.656C390.764 207.549 390.183 207.427 389.724 207.288C389.265 207.149 388.865 206.904 388.524 206.552C388.193 206.2 388.028 205.699 388.028 205.048C388.028 204.504 388.183 204.024 388.492 203.608C388.812 203.181 389.271 202.851 389.868 202.616C390.476 202.381 391.191 202.264 392.012 202.264C392.62 202.264 393.223 202.333 393.82 202.472C394.428 202.6 394.929 202.781 395.324 203.016L394.492 204.792C393.735 204.365 392.908 204.152 392.012 204.152C391.479 204.152 391.079 204.227 390.812 204.376C390.545 204.525 390.412 204.717 390.412 204.952C390.412 205.219 390.556 205.405 390.844 205.512C391.132 205.619 391.591 205.72 392.22 205.816C392.924 205.933 393.5 206.061 393.948 206.2C394.396 206.328 394.785 206.568 395.116 206.92C395.447 207.272 395.612 207.763 395.612 208.392C395.612 208.925 395.452 209.4 395.132 209.816C394.812 210.232 394.343 210.557 393.724 210.792C393.116 211.016 392.391 211.128 391.548 211.128Z" fill="white"/>
<path d="M416.968 211.128C416.051 211.128 415.224 210.941 414.488 210.568C413.763 210.184 413.192 209.656 412.776 208.984C412.371 208.312 412.168 207.549 412.168 206.696C412.168 205.843 412.371 205.08 412.776 204.408C413.192 203.736 413.763 203.213 414.488 202.84C415.224 202.456 416.051 202.264 416.968 202.264C417.875 202.264 418.664 202.456 419.336 202.84C420.019 203.213 420.515 203.752 420.824 204.456L418.888 205.496C418.44 204.707 417.795 204.312 416.952 204.312C416.302 204.312 415.763 204.525 415.336 204.952C414.91 205.379 414.696 205.96 414.696 206.696C414.696 207.432 414.91 208.013 415.336 208.44C415.763 208.867 416.302 209.08 416.952 209.08C417.806 209.08 418.451 208.685 418.888 207.896L420.824 208.952C420.515 209.635 420.019 210.168 419.336 210.552C418.664 210.936 417.875 211.128 416.968 211.128ZM426.248 211.128C425.341 211.128 424.525 210.941 423.8 210.568C423.085 210.184 422.525 209.656 422.12 208.984C421.715 208.312 421.512 207.549 421.512 206.696C421.512 205.843 421.715 205.08 422.12 204.408C422.525 203.736 423.085 203.213 423.8 202.84C424.525 202.456 425.341 202.264 426.248 202.264C427.155 202.264 427.965 202.456 428.68 202.84C429.395 203.213 429.955 203.736 430.36 204.408C430.765 205.08 430.968 205.843 430.968 206.696C430.968 207.549 430.765 208.312 430.36 208.984C429.955 209.656 429.395 210.184 428.68 210.568C427.965 210.941 427.155 211.128 426.248 211.128ZM426.248 209.08C426.888 209.08 427.411 208.867 427.816 208.44C428.232 208.003 428.44 207.421 428.44 206.696C428.44 205.971 428.232 205.395 427.816 204.968C427.411 204.531 426.888 204.312 426.248 204.312C425.608 204.312 425.08 204.531 424.664 204.968C424.248 205.395 424.04 205.971 424.04 206.696C424.04 207.421 424.248 208.003 424.664 208.44C425.08 208.867 425.608 209.08 426.248 209.08ZM437.868 202.264C438.935 202.264 439.794 202.584 440.444 203.224C441.106 203.864 441.436 204.813 441.436 206.072V211H438.94V206.456C438.94 205.773 438.791 205.267 438.492 204.936C438.194 204.595 437.762 204.424 437.196 204.424C436.567 204.424 436.066 204.621 435.692 205.016C435.319 205.4 435.132 205.976 435.132 206.744V211H432.636V202.392H435.02V203.4C435.351 203.037 435.762 202.76 436.252 202.568C436.743 202.365 437.282 202.264 437.868 202.264ZM449.251 210.584C449.006 210.765 448.702 210.904 448.339 211C447.987 211.085 447.614 211.128 447.219 211.128C446.195 211.128 445.4 210.867 444.835 210.344C444.28 209.821 444.003 209.053 444.003 208.04V204.504H442.675V202.584H444.003V200.488H446.499V202.584H448.643V204.504H446.499V208.008C446.499 208.371 446.59 208.653 446.771 208.856C446.963 209.048 447.23 209.144 447.571 209.144C447.966 209.144 448.302 209.037 448.579 208.824L449.251 210.584ZM454.124 202.264C455.457 202.264 456.481 202.584 457.196 203.224C457.911 203.853 458.268 204.808 458.268 206.088V211H455.932V209.928C455.463 210.728 454.588 211.128 453.308 211.128C452.647 211.128 452.071 211.016 451.58 210.792C451.1 210.568 450.732 210.259 450.476 209.864C450.22 209.469 450.092 209.021 450.092 208.52C450.092 207.72 450.391 207.091 450.988 206.632C451.596 206.173 452.529 205.944 453.788 205.944H455.772C455.772 205.4 455.607 204.984 455.276 204.696C454.945 204.397 454.449 204.248 453.788 204.248C453.329 204.248 452.876 204.323 452.428 204.472C451.991 204.611 451.617 204.803 451.308 205.048L450.412 203.304C450.881 202.973 451.441 202.717 452.092 202.536C452.753 202.355 453.431 202.264 454.124 202.264ZM453.932 209.448C454.359 209.448 454.737 209.352 455.068 209.16C455.399 208.957 455.633 208.664 455.772 208.28V207.4H454.06C453.036 207.4 452.524 207.736 452.524 208.408C452.524 208.728 452.647 208.984 452.892 209.176C453.148 209.357 453.495 209.448 453.932 209.448ZM464.781 211.128C463.863 211.128 463.037 210.941 462.301 210.568C461.575 210.184 461.005 209.656 460.589 208.984C460.183 208.312 459.981 207.549 459.981 206.696C459.981 205.843 460.183 205.08 460.589 204.408C461.005 203.736 461.575 203.213 462.301 202.84C463.037 202.456 463.863 202.264 464.781 202.264C465.687 202.264 466.477 202.456 467.149 202.84C467.831 203.213 468.327 203.752 468.637 204.456L466.701 205.496C466.253 204.707 465.607 204.312 464.765 204.312C464.114 204.312 463.575 204.525 463.149 204.952C462.722 205.379 462.509 205.96 462.509 206.696C462.509 207.432 462.722 208.013 463.149 208.44C463.575 208.867 464.114 209.08 464.765 209.08C465.618 209.08 466.263 208.685 466.701 207.896L468.637 208.952C468.327 209.635 467.831 210.168 467.149 210.552C466.477 210.936 465.687 211.128 464.781 211.128ZM475.751 210.584C475.506 210.765 475.202 210.904 474.839 211C474.487 211.085 474.114 211.128 473.719 211.128C472.695 211.128 471.9 210.867 471.335 210.344C470.78 209.821 470.503 209.053 470.503 208.04V204.504H469.175V202.584H470.503V200.488H472.999V202.584H475.143V204.504H472.999V208.008C472.999 208.371 473.09 208.653 473.271 208.856C473.463 209.048 473.73 209.144 474.071 209.144C474.466 209.144 474.802 209.037 475.079 208.824L475.751 210.584Z" fill="white"/>
<defs>
<clipPath id="clip0_22728_8148">
<rect width="482" height="25" fill="white" transform="translate(60 50)"/>
</clipPath>
<clipPath id="clip1_22728_8148">
<rect width="24" height="24" fill="white" transform="translate(518 50.5)"/>
</clipPath>
<clipPath id="clip2_22728_8148">
<rect width="302" height="60" fill="white" transform="translate(60 105)"/>
</clipPath>
</defs>
</svg>
